<svg width="592" height="520" viewBox="0 0 592 520" xmlns="http://www.w3.org/2000/svg"><g fill="none" fill-rule="evenodd"><path fill="#121110" d="M0 388h592v132h-592z"/><path fill="#B0ADAA" d="M0 0h592v384h-592z"/><path fill="#A19D99" d="M0 0h592v384h-592zm0 448h592v3.5h-592zm0 32h592v3.5h-592zm0 32h592v3.5h-592z"/><path fill="#121110" d="m116 512 0 3.5-63.678 0-3.5-3.5z"/><path fill="#F5F3F1" fill-rule="nonzero" d="m35.8631 419.5 42.1538 42.3027 21.4551 21.7263-.1548-23.8116 0-31.5781 16.6828 16.6828 0 67.1779-67.178 0-16.6827-16.6828 31.4291 0 23.7386.2318-21.6532-21.3831-42.1538-42.1538z"/><path fill="#121110" fill-rule="nonzero" d="m95.987 480 3.456 3.5-24.337 0-3.544-3.5zm20.013 0 0 3.5-16.528 0-.023-3.5zm-.001-32 0 3.5-16.682 0 0-3.5zm-51.736 0 3.488 3.5-24.764 0-3.5-3.5zm177.6157-145.2967 0 18.289-29.133 0 0 63.007-19.261 0 0-63.007-29.294 0 0-18.289zm33.9822 20.7167c12.0848 0 21.0675 3.345 26.948 10.0347 5.8806 6.6898 8.8208 15.8614 8.8208 27.5145l0 23.0301-19.0984 0 0-12.0143-21.0404 6.7877c-3.8844 1.187-6.7977 2.8594-8.7399 5.0174l-.1837.2092-20.205 0c.9897-2.4271 2.391-4.6818 4.2037-6.7641 3.9923-4.5858 9.6031-8.0656 16.8324-10.4394l28.979-9.4717-.0154-.1875c-.466-5.1663-1.8932-8.987-4.2814-11.4622-2.9673-3.0751-7.7958-4.6127-14.4856-4.6127-3.7765 0-7.9307.4856-12.4625 1.4567-4.5318.971-9.8189 2.5356-15.8613 4.6936l0-18.289c11.7611-3.6687 21.9577-5.503 30.5897-5.503Zm68.6189-28.8093-.0008 89.389-19.098 0 .0005-89.389zm55.346 28.8093c8.632 0 16.158 1.9962 22.578 5.9885 6.4201 3.9923 11.3026 9.3333 14.6475 16.0231 3.345 6.6898 5.0174 14.027 5.0174 22.0116 0 1.7145-.1008 3.6908-.3023 5.929l-.1198 1.2469a115.5726 115.5726 0 0 1-.0675.6429l-.1498 1.3248 0 0-.1699 1.3767 0 0-66.33-.0005.0054.0481c.2504 2.065.741 4.0613 1.472 5.9892l-19.8078 0c-1.0704-4.1868-1.6056-8.6269-1.6056-13.32 0-8.8478 1.8612-16.8864 5.5838-24.1157 3.7225-7.2293 8.9827-12.894 15.7804-16.9942 6.7977-4.1003 14.6204-6.1504 23.4682-6.1504Zm-.3237 16.6706c-5.395 0-9.9538 1.1869-13.6763 3.5607-3.7226 2.3738-6.501 5.5568-8.3353 9.5491-1.4355 3.1245-2.3093 6.5132-2.6214 10.1663l-.0157.1913 48.022 0-.038-.5284c-.5021-6.31-2.427-11.5286-5.7746-15.6558-3.9383-4.8555-9.7919-7.2832-17.5607-7.2832Zm98.399-16.6705c5.9345 0 11.2216 1.3217 15.8613 3.9653 4.6397 2.6435 8.3353 6.6358 11.0867 11.9769 2.7515 5.341 4.1272 11.896 4.1272 19.6647l0 24.972-19.0983 0 0-22.706c0-6.582-1.5915-11.7881-4.7746-15.6186-3.183-3.8304-7.9036-5.7457-14.1618-5.7457-6.582 0-11.5993 2.1041-15.052 6.3122-3.4529 4.2081-5.1793 9.8189-5.1793 16.8324l-.0003 20.9257-19.098 0 0-58.6368 18.7746 0-.0006 16.6779.1434-.3788a31.8377 31.8377 0 0 1 1.152-2.6227c2.5896-5.2332 6.1503-9.1445 10.6821-11.7341 4.5318-2.5897 9.711-3.8845 15.5376-3.8845Zm70.3992-21.0405-.0005 22.982 22.4977.0007 0 17.156-22.4977-.0007 0 41.482-19.098 0 0-41.482-13.757.0007 0-17.156 13.757-.0007.0002-17.641z"/><path fill="#F5F3F1" fill-rule="nonzero" d="m212.741 384 .0002 32-19.2601 0-.0001-32zm98.8842 0 0 32-18.6127 0-.0004-12.459-.2465.4202c-2.5406 4.2224-5.965 7.561-10.2734 10.0157-4.6397 2.6435-9.8728 3.9653-15.6994 3.9653-8.0925 0-14.4856-2.2929-19.1792-6.8786-4.6937-4.5858-7.0405-10.4393-7.0405-17.5607 0-3.417.595-6.5846 1.7852-9.503l20.2058 0-.0654.0756c-1.777 2.0956-2.6655 4.5367-2.6655 7.3233 0 3.3449 1.2409 6.1503 3.7226 8.4162 2.4817 2.2659 5.7726 3.3988 9.8728 3.3988 3.237 0 6.3392-.8092 9.3064-2.4277 2.9673-1.6185 5.341-3.8574 7.1214-6.7168 1.7804-2.8593 2.6705-6.0693 2.6705-9.63l-.0008-.4393 19.0991 0Zm32.8498 0 .0003 32-19.0983 0-.001-32zm33.6584 3.6762c2.266 3.9923 5.7187 7.1754 10.3584 9.5492 4.6397 2.3738 10.3045 3.5607 16.9943 3.5607 9.603 0 19.476-2.9133 29.6185-8.7399l0 18.6128c-9.8189 4.8555-20.1773 7.2832-31.0752 7.2832-9.9268 0-18.5858-2.0231-25.977-6.0694-7.391-4.0462-13.0828-9.657-17.075-16.8324-1.9254-3.4603-3.3864-7.1402-4.3833-11.0397l19.8078 0c.4755 1.2543 1.0526 2.4795 1.7315 3.6755Zm150.8376-3.6762.0008 32-19.0983 0-.0005-32 19.098 0Zm-58.266 0 .0008 32-19.0983 0-.0005-32 19.098 0Zm97.59 0 .0008 3.0288c0 3.237.3507 5.7188 1.052 7.4452.7014 1.7264 1.8344 2.9402 3.399 3.6416 1.5645.7013 3.7494 1.052 6.5548 1.052 3.345 0 7.1214-.4316 11.3295-1.2948l0 17.6417c-5.6108.971-10.5742 1.4566-14.8902 1.4566-6.366 0-11.4913-.998-15.3757-2.9942-3.8844-1.9962-6.7168-4.9904-8.4971-8.9827-1.7804-3.9923-2.6706-9.1175-2.6706-15.3757l-.0005-5.6185 19.098 0Z"/><path d="M519.5955 260.9693c-4.2081 9.1715-9.3064 16.239-15.2948 21.2024-5.9885 4.9633-13.3526 7.445-22.0926 7.445-6.366 0-12.0308-1.2947-16.9942-3.8843-4.9634-2.5897-8.8208-6.1504-11.5723-10.6821-2.7514-4.5319-4.1271-9.6031-4.1271-15.214 0-7.0135 1.8612-12.921 5.5838-17.7225 3.7225-4.8016 8.605-9.1446 14.6474-13.029l13.4336-8.7398 2.7514 0 6.3121-5.0174c2.9134-2.2659 5.1523-4.5588 6.7168-6.8786 1.5646-2.3199 2.3468-4.9365 2.3468-7.8498 0-3.4528-1.079-6.2312-3.237-8.3352-2.158-2.104-4.9094-3.1561-8.2543-3.1561-3.5607 0-6.3661 1.133-8.4162 3.3989-2.0501 2.2659-3.0752 5.0712-3.0752 8.4161 0 2.9134.7284 5.5839 2.185 8.0116 1.4567 2.4278 3.5877 5.2062 6.3931 8.3353l.4856.6474 62.7978 70.081-24.6013 0-50.8208-59.3989-2.1041-2.2659c-4.2081-4.9634-7.3642-9.2524-9.4682-12.867-2.104-3.6147-3.1561-7.9577-3.1561-13.029 0-5.395 1.3218-10.1696 3.9653-14.3237 2.6436-4.1542 6.2582-7.3642 10.844-9.6301 4.5857-2.2659 9.63-3.3988 15.133-3.3988 5.287 0 10.1156 1.079 14.4855 3.237 4.37 2.158 7.8228 5.2331 10.3584 9.2254 2.5357 3.9923 3.8035 8.632 3.8035 13.9191 0 5.5029-1.4027 10.4124-4.2081 14.7284-2.8054 4.316-6.9056 8.4701-12.3006 12.4624l-6.9595 5.1792-5.6648 2.4278-9.3873 6.3121c-3.9923 2.8054-6.9865 5.6108-8.9827 8.4162-1.9961 2.8054-2.9942 5.8805-2.9942 9.2254 0 4.316 1.4027 7.8498 4.2081 10.6012 2.8054 2.7515 6.42 4.1272 10.844 4.1272 4.5317 0 8.3892-1.4566 11.5722-4.37 3.183-2.9132 6.6628-7.445 10.4393-13.5953l.4856-.8093 2.2659-1.4567 18.1272-33.5029 21.0405 0-24.763 39.8151-2.7515 1.9422Zm-459.5493-100.971 0-113.295 30.4279 0c12.948 0 24.1426 2.2389 33.5838 6.7167 9.4413 4.4779 16.6706 10.9788 21.688 19.503 5.0173 8.524 7.526 18.6667 7.526 30.4278 0 11.761-2.5087 21.9036-7.526 30.4277-5.0174 8.5241-12.2467 15.0251-21.688 19.503-9.4412 4.4778-20.6359 6.7168-33.5838 6.7168l-30.4279 0Zm19.26-18.128 11.1679.0008c14.4585 0 25.2216-3.372 32.289-10.1157 7.0675-6.7437 10.6012-16.212 10.6012-28.4047 0-12.1927-3.5337-21.6609-10.6012-28.4046-7.0674-6.7438-17.8304-10.1158-32.289-10.1158l-11.1679 0 0 77.04Zm129.0705 20.0702c-9.9268 0-18.5857-2.0232-25.9769-6.0694-7.3911-4.0463-13.0829-9.657-17.0752-16.8324-3.9923-7.1754-5.9884-15.2949-5.9884-24.3585 0-8.8478 1.8613-16.8863 5.5838-24.1156 3.7226-7.2293 8.9827-12.894 15.7804-16.9942 6.7977-4.1003 14.6204-6.1504 23.4682-6.1504 8.632 0 16.158 1.9962 22.5781 5.9885 6.42 3.9923 11.3025 9.3333 14.6474 16.0232 3.345 6.6897 5.0174 14.027 5.0174 22.0115 0 2.8054-.2698 6.3122-.8093 10.5203l-77.2024 0 0-14.4046 64.4163 0-5.503 2.9133c0-7.8768-1.969-14.2429-5.9074-19.0983-3.9384-4.8556-9.792-7.2833-17.5608-7.2833-5.395 0-9.9537 1.1869-13.6763 3.5607-3.7225 2.3738-6.501 5.5568-8.3353 9.5491-1.8343 3.9924-2.7514 8.4163-2.7514 13.2717l0 8.2544c0 4.6397 1.133 8.9557 3.3988 12.948 2.266 3.9923 5.7187 7.1754 10.3584 9.5491 4.6397 2.3739 10.3045 3.5607 16.9943 3.5607 9.603 0 19.476-2.9133 29.6185-8.7398l0 18.6127c-9.8189 4.8555-20.1773 7.2833-31.0752 7.2833Zm69.3492 0c-7.3372 0-15.106-1.4567-23.3064-4.37l0-18.1272c4.316 1.8343 8.4971 3.237 12.5434 4.2081 4.0462.9711 7.6339 1.4566 10.763 1.4566 4.2081 0 7.4181-.9171 9.63-2.7514 2.212-1.8343 3.318-4.2081 3.318-7.1214 0-2.9133-1.106-5.2331-3.318-6.9595-2.2119-1.7264-5.7996-3.7226-10.763-5.9885l-1.2948-.6474c-4.7476-2.158-8.659-4.262-11.734-6.3121-3.0752-2.0501-5.6648-4.8016-7.7689-8.2544-2.104-3.4528-3.156-7.6609-3.156-12.6243 0-8.2004 2.7784-14.7553 8.3352-19.6648 5.5569-4.9094 13.4066-7.3641 23.5492-7.3641 7.1214 0 14.7823 1.1868 22.9827 3.5606l0 17.9654c-4.5318-1.5106-8.7669-2.6705-12.7052-3.4798-3.9384-.8092-7.3642-1.2139-10.2775-1.2139-4.1002 0-7.2293.8902-9.3873 2.6706-2.158 1.7803-3.237 4.0732-3.237 6.8786 0 2.5896.9711 4.7206 2.9133 6.393 1.9422 1.6725 5.2331 3.5338 9.8728 5.5839l.9711.4856c5.1792 2.2659 9.3873 4.4508 12.6243 6.5549 3.237 2.104 5.9885 4.9364 8.2544 8.4971 2.2659 3.5607 3.3988 8.0385 3.3988 13.4335 0 8.2005-2.8323 14.7824-8.497 19.7458-5.6648 4.9634-13.5685 7.445-23.7111 7.445Zm60.932-92.5782 0 90.636-19.0984 0 0-90.636zm.3236-29.9423 0 16.185-19.7457 0 0-16.185zm50.5746 28c7.553 0 14.2158 1.7534 19.9885 5.2602 4.8072 2.9202 8.7726 7.019 11.8962 12.2964l-.0003-15.6144 18.6128 0 0 77.0406c0 14.2428-3.9653 25.4105-11.896 33.503-7.9306 8.0925-20.0424 12.1387-36.3353 12.1387-5.8266 0-11.5993-.5125-17.318-1.5375-5.7187-1.025-11.2755-2.5627-16.6705-4.6128l0-17.6416c11.4374 4.4239 22.4971 6.6359 33.1792 6.6359 9.3873 0 16.7245-2.158 22.0116-6.474 5.2871-4.316 7.9307-11.3835 7.9307-21.2024l.0003-7.32c-2.9807 5.6768-6.9462 10.005-11.8963 12.9847-5.5568 3.345-12.0578 5.0174-19.503 5.0174-7.8766 0-15.025-1.8343-21.445-5.5029-6.4201-3.6686-11.4914-8.9017-15.214-15.6995-3.7225-6.7977-5.5838-14.6744-5.5838-23.63 0-8.9558 1.8613-16.8864 5.5839-23.792 3.7225-6.9056 8.7938-12.2736 15.2139-16.104 6.42-3.8305 13.5684-5.7458 21.445-5.7458Zm4.208 16.9943c-5.6107 0-10.4662 1.2678-14.5664 3.8035-4.1002 2.5356-7.2293 5.9884-9.3873 10.3584-2.158 4.37-3.237 9.1984-3.237 14.4856 0 5.287 1.079 10.1156 3.237 14.4855 2.158 4.37 5.287 7.8228 9.3873 10.3584 4.1002 2.5357 8.9557 3.8035 14.5665 3.8035 5.6108 0 10.5202-1.2678 14.7283-3.8035 4.2081-2.5356 7.4182-5.9884 9.6301-10.3584 2.212-4.37 3.318-9.1985 3.318-14.4856 0-5.287-1.106-10.1156-3.318-14.4855-2.212-4.37-5.422-7.8228-9.63-10.3584-4.2082-2.5357-9.1176-3.8035-14.7284-3.8035Zm104.4706-16.9942c5.9345 0 11.2216 1.3217 15.8613 3.9653 4.6397 2.6435 8.3353 6.6358 11.0868 11.9769 2.7514 5.341 4.1271 11.896 4.1271 19.6647l0 56.9713-19.0983 0 0-54.7053c0-6.582-1.5915-11.7881-4.7745-15.6186-3.183-3.8304-7.9037-5.7457-14.162-5.7457-6.5818 0-11.5992 2.1041-15.052 6.3122-3.4528 4.2081-5.1792 9.8189-5.1792 16.8324l0 52.925-19.0983 0 0-90.636 18.7746 0-.001 16.6774c.3882-1.0395.8202-2.0399 1.2958-3.0011 2.5896-5.2332 6.1503-9.1446 10.6821-11.7341 4.5318-2.5897 9.711-3.8845 15.5376-3.8845Zm-496.8992 107.2831 19.7457 0 19.0983 84.8094 3.3989 16.8324.3237 0 3.3988-16.8324 19.422-84.8094 28.3238 0 19.5838 84.8094 3.3988 16.8324.3237 0 3.237-16.8324 19.0984-84.8094 19.422 0-26.2198 113.295-32.2081 0-17.8035-76.7168-3.3989-16.6706-.3236 0-3.3989 16.6705-17.318 76.717-32.0463 0zm205.8687 115.2372c-9.9268 0-18.5857-2.023-25.9769-6.0693-7.3911-4.0463-13.0829-9.657-17.0752-16.8324-3.9923-7.1754-5.9884-15.2948-5.9884-24.3585 0-8.8478 1.8613-16.8863 5.5838-24.1156 3.7226-7.2293 8.9827-12.894 15.7804-16.9943 6.7977-4.1002 14.6204-6.1502 23.4682-6.1502 8.632 0 16.158 1.9961 22.5781 5.9884 6.42 3.9923 11.3025 9.3333 14.6474 16.0231 3.345 6.6899 5.0174 14.027 5.0174 22.0117 0 2.8054-.2698 6.3121-.8093 10.5202l-77.2024 0 0-14.4047 64.4163 0-5.503 2.9134c0-7.8767-1.969-14.2428-5.9074-19.0983-3.9384-4.8555-9.792-7.2833-17.5608-7.2833-5.395 0-9.9537 1.1869-13.6763 3.5607-3.7225 2.3738-6.501 5.5568-8.3353 9.5491-1.8343 3.9923-2.7514 8.4162-2.7514 13.2717l0 8.2544c0 4.6397 1.133 8.9557 3.3988 12.948 2.266 3.9923 5.7187 7.1753 10.3584 9.5491 4.6397 2.3739 10.3045 3.5608 16.9943 3.5608 9.603 0 19.476-2.9133 29.6185-8.74l0 18.6128c-9.8189 4.8555-20.1773 7.2833-31.0752 7.2833Zm67.3266-123.3297-.0003 48.3977c3.0077-6.1651 7.081-10.8872 12.22-14.1664 5.6648-3.6146 12.2736-5.422 19.8266-5.422 7.8767 0 15.079 1.9692 21.607 5.9076 6.528 3.9383 11.6802 9.4952 15.4567 16.6705 3.7765 7.1754 5.6647 15.4027 5.6647 24.6822 0 9.2794-1.8882 17.5067-5.6647 24.682-3.7765 7.1754-8.9287 12.7323-15.4567 16.6706-6.528 3.9384-13.7303 5.9076-21.607 5.9076-7.553 0-14.2967-1.8343-20.2312-5.503-5.0313-3.1102-9.132-7.442-12.302-12.9952l.0014 16.556-18.6128 0 0-121.3875 19.0983 0Zm27.8382 46.2891c-5.7187 0-10.709 1.3218-14.971 3.9654-4.2621 2.6435-7.553 6.2312-9.873 10.763-2.3198 4.5318-3.4797 9.5491-3.4797 15.052 0 5.503 1.16 10.5203 3.4798 15.0521 2.3198 4.5318 5.6108 8.1195 9.8728 10.763 4.262 2.6436 9.2524 3.9654 14.9711 3.9654 5.6108 0 10.5203-1.3218 14.7284-3.9654 4.2081-2.6435 7.4181-6.2312 9.63-10.763 2.212-4.5318 3.318-9.5491 3.318-15.052 0-5.503-1.106-10.5203-3.318-15.0521-2.2119-4.5318-5.4219-8.1195-9.63-10.763-4.2081-2.6436-9.1176-3.9654-14.7284-3.9654Z" fill="#121110" fill-rule="nonzero"/><path fill="#E9E7E5" d="M0 288h592v3.5h-592zm0-160h592v3.5h-592zm0 128h592v3.5h-592zm0-160h592v3.5h-592zm0 128h592v3.5h-592zm0-160h592v3.5h-592z"/><path fill="#E9E7E4" d="M0 320h592v3.5h-592z"/><path fill="#E9E7E5" d="M0 160h592v3.5h-592zm0-160h592v3.5h-592zm0 352h592v3.5h-592zm0-160h592v3.5h-592zm0-160h592v3.5h-592zm0 352h592v3.5h-592z"/><path fill="#A19D99" d="M0 416h592v3.5h-592z"/></g></svg>